<svg xmlns="http://www.w3.org/2000/svg" viewBox="0 0 37.43 99.81"><defs><style>.cls-1{fill:#1d1d1b;fill-rule:evenodd}</style></defs><title>Ресурс 27</title><g id="Слой_2" data-name="Слой 2"><path class="cls-1" d="M34.43 0H3a3 3 0 0 0-3 3v93.81a3 3 0 0 0 3 3h31.43a3 3 0 0 0 3-3V3a3 3 0 0 0-3-3zM11.85 53.65A3.12 3.12 0 1 1 15 50.53a3.12 3.12 0 0 1-3.15 3.12zm7.49 7.49A3.12 3.12 0 1 1 22.46 58a3.12 3.12 0 0 1-3.12 3.13zm0-15A3.12 3.12 0 1 1 22.46 43a3.12 3.12 0 0 1-3.12 3.16zm7.49 22.46a3.12 3.12 0 1 1 3.12-3.12 3.12 3.12 0 0 1-3.13 3.14zm0-29.94a3.12 3.12 0 1 1 3.12-3.12 3.12 3.12 0 0 1-3.13 3.14z" id="Слой_1-2" data-name="Слой 1"/></g></svg>