<svg xmlns="http://www.w3.org/2000/svg" viewBox="0 0 37.43 99.81"><defs><style>.cls-1{fill:#1d1d1b;fill-rule:evenodd;}</style></defs><title>Ресурс 27</title><g id="Слой_2" data-name="Слой 2"><g id="Слой_1-2" data-name="Слой 1"><path class="cls-1" d="M34.43,0H3A3,3,0,0,0,0,3V96.81a3,3,0,0,0,3,3H34.43a3,3,0,0,0,3-3V3A3,3,0,0,0,34.43,0ZM11.85,53.65A3.12,3.12,0,1,1,15,50.53,3.12,3.12,0,0,1,11.85,53.65Zm7.49,7.49A3.12,3.12,0,1,1,22.46,58,3.12,3.12,0,0,1,19.34,61.13Zm0-15A3.12,3.12,0,1,1,22.46,43,3.12,3.12,0,0,1,19.34,46.16Zm7.49,22.46a3.12,3.12,0,1,1,3.12-3.12A3.12,3.12,0,0,1,26.82,68.62Zm0-29.94a3.12,3.12,0,1,1,3.12-3.12A3.12,3.12,0,0,1,26.82,38.68Z"/></g></g></svg>